<svg version="1.1" id="Layer_1" xmlns="http://www.w3.org/2000/svg" xmlns:xlink="http://www.w3.org/1999/xlink" x="0px" y="0px" width="32px" height="32px" viewBox="0 0 32 32" enable-background="new 0 0 32 32" xml:space="preserve">
  <g id="icon">
    <path d="M18.375,23.111c-0.156,0.155,-0.35,0.26,-0.561,0.304c-0.087,0.287,-0.287,0.532,-0.556,0.673l-4.812,2.522c-0.161,0.084,-0.342,0.129,-0.524,0.129c-0.301,0,-0.584,-0.117,-0.796,-0.329l-0.195,-0.195c-0.353,-0.351,-0.434,-0.883,-0.201,-1.324l2.531,-4.796c0.144,-0.273,0.388,-0.469,0.675,-0.554c0.045,-0.211,0.15,-0.404,0.306,-0.559l10.024,-9.986c-0.049,-0.069,-0.104,-0.134,-0.166,-0.196c-1.484,-1.484,-6.601,-6.601,-6.9,-6.9c-0.35,-0.35,-0.662,-0.4,-0.9,-0.4S2.4,1.5,2.4,1.5c-0.635,0,-0.9,0.259,-0.9,0.9v27.2c0,0.641,0.265,0.9,0.9,0.9h21.2c0.635,0,0.9,-0.259,0.9,-0.9c0,0,0,-6.93,0,-12.591L18.375,23.111z" fill-rule="evenodd" fill="#FFFFFF"/>
    <path d="M24,17.507V29.6c0,0.363,-0.037,0.4,-0.4,0.4H2.4c-0.363,0,-0.4,-0.037,-0.4,-0.4V2.4c0,-0.363,0.037,-0.4,0.4,-0.4h13.6v6.7c0,0.717,0.583,1.3,1.3,1.3h5.958l1.365,-1.36c-0.052,-0.066,-0.107,-0.131,-0.169,-0.194l-6.9,-6.9C17.186,1.179,16.776,1,16.3,1H2.4c-0.916,0,-1.4,0.484,-1.4,1.4v27.2c0,0.916,0.484,1.4,1.4,1.4h21.2c0.916,0,1.4,-0.484,1.4,-1.4V16.511L24,17.507zM17,2.407L23.593,9H17.3c-0.165,0,-0.3,-0.135,-0.3,-0.3V2.407z" fill="#6D6E71"/>
    <path d="M14.948,19.69L26.195,8.486c0.05,-0.05,0.13,-0.05,0.18,0l2.541,2.533c0.05,0.05,0.05,0.13,0,0.18L17.669,22.403c-0.05,0.05,-0.13,0.05,-0.18,0l-2.541,-2.533C14.898,19.82,14.898,19.74,14.948,19.69zM28.049,6.638c0.452,-0.45,0.912,-0.45,1.363,0l1.268,1.264c0.426,0.425,0.426,1.114,0,1.538l-0.941,0.938c-0.05,0.049,-0.13,0.05,-0.18,0L27,7.849c-0.05,-0.05,-0.05,-0.131,0,-0.181L28.049,6.638zM11.615,25.358l2.531,-4.796c0.04,-0.076,0.142,-0.091,0.203,-0.031L16.825,23c0.061,0.06,0.045,0.162,-0.031,0.202l-4.812,2.522c-0.049,0.026,-0.11,0.017,-0.149,-0.023l-0.196,-0.195C11.598,25.468,11.589,25.407,11.615,25.358z" fill-rule="evenodd" fill="#217346"/>
    <line x1="5.5" y1="26.5" x2="20.5" y2="26.5" fill="none" stroke="#6D6E71" stroke-width="1" stroke-linecap="round" stroke-miterlimit="10"/>
  </g>
</svg>
