<svg version="1.1" id="Layer_1" xmlns="http://www.w3.org/2000/svg" xmlns:xlink="http://www.w3.org/1999/xlink" x="0px" y="0px" width="16px" height="16px" viewBox="0 0 16 16" enable-background="new 0 0 16 16" xml:space="preserve">
  <g id="icon">
    <path d="M9.3,10.255c-0.088,0.088,-0.189,0.159,-0.299,0.21c-0.1,0.173,-0.248,0.317,-0.429,0.411l-2.673,1.401c-0.153,0.08,-0.325,0.122,-0.497,0.122c-0.285,0,-0.554,-0.111,-0.756,-0.312l-0.109,-0.109c-0.335,-0.335,-0.412,-0.84,-0.191,-1.258l1.406,-2.664c0.097,-0.183,0.241,-0.33,0.413,-0.429c0.052,-0.109,0.123,-0.209,0.211,-0.297l4.586,-4.569c-0.822,-0.822,-1.804,-1.804,-1.921,-1.921C8.849,0.649,8.583,0.5,8.117,0.5S1.1,0.5,1.1,0.5c-0.331,0,-0.6,0.269,-0.6,0.6v13.8c0,0.331,0.269,0.6,0.6,0.6h10.8c0.331,0,0.6,-0.269,0.6,-0.6c0,0,0,-4.99,0,-7.834L9.3,10.255z" fill-rule="evenodd" fill="#FFFFFF"/>
    <path d="M12,7.564V14.9c0,0.055,-0.045,0.1,-0.1,0.1H1.1c-0.055,0,-0.1,-0.045,-0.1,-0.1V1.1c0,-0.055,0.045,-0.1,0.1,-0.1h6.9v3c0,0.457,0.372,0.839,0.756,0.96L9.72,4h-0.674c-0.016,-0.009,-0.034,-0.023,-0.045,-0.035V1.507l1.608,1.608l0.708,-0.706L9.395,0.488C9.067,0.16,8.649,0,8.117,0H1.1C0.493,0,0,0.493,0,1.1v13.8c0,0.607,0.493,1.1,1.1,1.1h10.8c0.607,0,1.1,-0.493,1.1,-1.1V6.568L12,7.564z" fill="#6D6E71"/>
    <path d="M7.082,8.039l6.248,-6.225c0.028,-0.028,0.072,-0.028,0.1,0l1.412,1.407c0.028,0.028,0.028,0.072,0,0.1L8.594,9.546c-0.028,0.028,-0.072,0.028,-0.1,0L7.082,8.139C7.054,8.111,7.054,8.067,7.082,8.039zM14.36,0.788c0.251,-0.25,0.506,-0.25,0.757,0l0.704,0.702c0.237,0.236,0.237,0.619,0,0.855L15.3,2.865c-0.028,0.027,-0.072,0.028,-0.1,0l-1.422,-1.405c-0.028,-0.028,-0.028,-0.073,0,-0.1L14.36,0.788zM5.23,11.188l1.406,-2.665c0.022,-0.042,0.079,-0.051,0.113,-0.017l1.376,1.371c0.034,0.034,0.025,0.09,-0.017,0.112l-2.673,1.401c-0.027,0.014,-0.061,0.009,-0.083,-0.013l-0.109,-0.108C5.221,11.249,5.216,11.216,5.23,11.188z" fill-rule="evenodd" fill="#217346"/>
    <line x1="3" y1="12.5" x2="10" y2="12.5" fill="none" stroke="#6D6E71" stroke-width="1" stroke-linecap="round" stroke-miterlimit="10"/>
  </g>
</svg>
